<?xml version="1.0" encoding="UTF-8" standalone="no"?>
<!-- Created with Inkscape (http://www.inkscape.org/) -->

<svg
   xmlns:dc="http://purl.org/dc/elements/1.1/"
   xmlns:cc="http://creativecommons.org/ns#"
   xmlns:rdf="http://www.w3.org/1999/02/22-rdf-syntax-ns#"
   xmlns:svg="http://www.w3.org/2000/svg"
   xmlns="http://www.w3.org/2000/svg"
   xmlns:sodipodi="http://sodipodi.sourceforge.net/DTD/sodipodi-0.dtd"
   xmlns:inkscape="http://www.inkscape.org/namespaces/inkscape"
   width="400"
   height="200"
   viewBox="0 0 105.83333 52.916668"
   version="1.1"
   id="svg8"
   inkscape:version="0.92.4 5da689c313, 2019-01-14"
   sodipodi:docname="positive-and-negative-skew.svg">
  <defs
     id="defs2" />
  <sodipodi:namedview
     id="base"
     pagecolor="#ffffff"
     bordercolor="#666666"
     borderopacity="1.0"
     inkscape:pageopacity="0.0"
     inkscape:pageshadow="2"
     inkscape:zoom="1"
     inkscape:cx="224.71429"
     inkscape:cy="120"
     inkscape:document-units="mm"
     inkscape:current-layer="layer1"
     showgrid="false"
     units="px"
     inkscape:window-width="1600"
     inkscape:window-height="851"
     inkscape:window-x="0"
     inkscape:window-y="0"
     inkscape:window-maximized="1" />
  <metadata
     id="metadata5">
    <rdf:RDF>
      <cc:Work
         rdf:about="">
        <dc:format>image/svg+xml</dc:format>
        <dc:type
           rdf:resource="http://purl.org/dc/dcmitype/StillImage" />
        <dc:title></dc:title>
      </cc:Work>
    </rdf:RDF>
  </metadata>
  <g
     inkscape:label="Layer 1"
     inkscape:groupmode="layer"
     id="layer1"
     transform="translate(0,-244.08332)">
    <text
       xml:space="preserve"
       style="font-style:normal;font-variant:normal;font-weight:bold;font-stretch:normal;font-size:2.82222223px;line-height:1.25;font-family:'Noto Sans Mono';-inkscape-font-specification:'Noto Sans Mono Bold';letter-spacing:0px;word-spacing:0px;fill:#000000;fill-opacity:1;stroke:none;stroke-width:0.26458332"
       x="7.9375"
       y="251.49165"
       id="text12"><tspan
         sodipodi:role="line"
         id="tspan10"
         x="7.9375"
         y="251.49165"
         style="font-style:normal;font-variant:normal;font-weight:normal;font-stretch:normal;font-size:4.93888903px;font-family:'Liberation Sans';-inkscape-font-specification:'Liberation Sans, Normal';font-variant-ligatures:normal;font-variant-caps:normal;font-variant-numeric:normal;font-feature-settings:normal;text-align:start;writing-mode:lr-tb;text-anchor:start;stroke-width:0.26458332">Positive skew</tspan></text>
    <text
       xml:space="preserve"
       style="font-style:normal;font-variant:normal;font-weight:bold;font-stretch:normal;font-size:2.82222223px;line-height:1.25;font-family:'Noto Sans Mono';-inkscape-font-specification:'Noto Sans Mono Bold';letter-spacing:0px;word-spacing:0px;fill:#000000;fill-opacity:1;stroke:none;stroke-width:0.26458332"
       x="61.291004"
       y="252.19859"
       id="text12-7"><tspan
         sodipodi:role="line"
         id="tspan10-4"
         x="61.291004"
         y="252.19859"
         style="font-style:normal;font-variant:normal;font-weight:normal;font-stretch:normal;font-size:4.93888903px;font-family:'Liberation Sans';-inkscape-font-specification:'Liberation Sans, Normal';font-variant-ligatures:normal;font-variant-caps:normal;font-variant-numeric:normal;font-feature-settings:normal;text-align:start;writing-mode:lr-tb;text-anchor:start;stroke-width:0.26458332">Negative skew</tspan></text>
    <path
       style="fill:none;stroke:#000000;stroke-width:0.26458332px;stroke-linecap:butt;stroke-linejoin:miter;stroke-opacity:1"
       d="m 5.2916666,285.6229 c 0.088194,-0.35277 0.149592,-0.71336 0.2645833,-1.05833 0.1512004,-0.4536 0.5673217,-0.94554 0.79375,-1.32292 0.2300883,-0.38348 0.628201,-1.17363 0.79375,-1.5875 0.1035791,-0.25894 0.1398574,-0.5443 0.2645833,-0.79375 0.2844187,-0.56884 0.7427992,-1.03531 1.0583334,-1.5875 1.5117055,-2.64548 -0.3224192,0.48773 0.79375,-2.11666 0.1252622,-0.29228 0.3869573,-0.50933 0.5291666,-0.79375 0.1247259,-0.24946 0.1547212,-0.53741 0.2645838,-0.79375 0.155368,-0.36253 0.373798,-0.69581 0.529166,-1.05834 0.0882,-0.26458 0.176389,-0.52916 0.264584,-0.79375 0.08819,-0.0882 0.208804,-0.15302 0.264583,-0.26458 0.07888,-0.15777 -0.167337,-0.47339 0,-0.52917 0.251006,-0.0837 0.529167,0 0.79375,0 0.176389,0 0.358044,-0.0428 0.529167,0 0.19132,0.0478 0.337845,0.21675 0.529166,0.26459 0.171123,0.0428 0.358044,-0.0428 0.529167,0 0.382648,0.0957 1.589523,0.86141 1.852083,1.05833 0.348843,0.26163 0.712549,0.82781 1.058333,1.05833 1.236542,0.82436 -0.316916,-0.51811 1.322917,0.79375 0.194789,0.15583 0.352778,0.35278 0.529167,0.52917 0.264583,0.26458 0.529166,0.52917 0.79375,0.79375 0.176389,0.17639 0.329605,0.37949 0.529166,0.52917 0.157767,0.11832 0.389719,0.12513 0.529167,0.26458 0.06236,0.0624 -0.03944,0.1857 0,0.26458 0.202615,0.40523 0.471492,0.20691 0.79375,0.52917 0.139448,0.13945 0.125136,0.38972 0.264583,0.52917 0.278896,0.27889 0.7428,0.29251 1.058334,0.52916 0.199561,0.14968 0.329605,0.3795 0.529166,0.52917 0.104143,0.0781 1.471701,0.7648 1.5875,0.79375 0.171123,0.0428 0.358045,-0.0428 0.529167,0 0.191321,0.0478 0.346063,0.19134 0.529167,0.26458 0.258947,0.10358 0.544298,0.13986 0.79375,0.26459 0.284419,0.1422 0.496006,0.41751 0.79375,0.52916 0.421071,0.15791 0.886637,0.15552 1.322916,0.26459 0.270569,0.0676 0.520272,0.20988 0.79375,0.26458 0.172964,0.0346 0.358045,-0.0428 0.529167,0 0.19132,0.0478 0.352777,0.17639 0.529167,0.26458 0.264583,0 0.532767,-0.0435 0.79375,0 0.550201,0.0917 1.037299,0.43747 1.5875,0.52917 0.260982,0.0435 0.534304,-0.0519 0.79375,0 0.193378,0.0387 0.337846,0.21675 0.529166,0.26458 0.171122,0.0428 0.361829,-0.0558 0.529167,0 0.118324,0.0394 0.146259,0.22514 0.264583,0.26459 0.167339,0.0558 0.356203,-0.0346 0.529167,0 0.273479,0.0547 0.529167,0.17639 0.79375,0.26458 0.352777,0 0.709102,-0.0499 1.058333,0 0.963491,0.13764 0.556564,0.27372 1.322917,0.52917 0.08367,0.0279 0.17639,0 0.264583,0 0.317781,0 1.016971,-0.051 1.322917,0 3.354887,0.83872 -1.201259,-0.20941 2.116666,0.26458 0.276093,0.0394 0.523182,0.19694 0.79375,0.26458 0.293008,0.0733 1.070431,-0.0842 1.322917,0 0.18709,0.0624 0.342077,0.20222 0.529167,0.26459 0.08367,0.0279 0.17639,0 0.264583,0 0.17639,0 0.352777,0 0.529167,0 0.352777,0 0.705556,0 1.058333,0"
       id="path36"
       inkscape:connector-curvature="0" />
    <path
       style="fill:none;stroke:#000000;stroke-width:0.26458332px;stroke-linecap:butt;stroke-linejoin:miter;stroke-opacity:1"
       d="m 56.885416,286.68124 c 0.352777,-0.0882 0.698352,-0.21316 1.058333,-0.26459 0.261925,-0.0374 0.529167,0 0.79375,0 0.61736,0 1.234723,0 1.852084,0 0.176389,0 0.358044,0.0428 0.529166,0 0.19132,-0.0478 0.337847,-0.21675 0.529167,-0.26458 0.171122,-0.0428 0.352777,0 0.529167,0 0.176389,0 0.352776,0 0.529166,0 0.881944,0 1.76389,0 2.645834,0 1.499306,0 2.99861,0 4.497916,0 0.440973,0 0.881944,0 1.322917,0 0.264583,0 0.531825,0.0374 0.79375,0 0.359981,-0.0514 0.697505,-0.21948 1.058333,-0.26458 0.612595,-0.0766 1.240928,0.0873 1.852083,0 0.359982,-0.0514 0.698352,-0.21316 1.058334,-0.26459 0.261924,-0.0374 0.534305,0.0519 0.79375,0 0.193378,-0.0387 0.337846,-0.21675 0.529166,-0.26458 1.884678,-0.47117 -1.34045,0.80076 1.322917,-0.26458 0.540785,-0.21632 1.066345,-0.53318 1.5875,-0.79375 0.17639,-0.0882 0.352777,-0.17639 0.529167,-0.26459 0.176389,-0.0882 0.371401,-0.14626 0.529166,-0.26458 0.199562,-0.14967 0.334378,-0.37334 0.529167,-0.52917 0.248309,-0.19864 0.545441,-0.33052 0.79375,-0.52916 0.194789,-0.15584 0.334378,-0.37334 0.529167,-0.52917 0.248308,-0.19865 0.545441,-0.33052 0.79375,-0.52917 0.194789,-0.15583 0.329604,-0.37949 0.529166,-0.52916 0.157766,-0.11833 0.352777,-0.17639 0.529167,-0.26459 0.264583,-0.17639 0.545441,-0.33052 0.79375,-0.52916 0.370935,-0.29675 0.717439,-0.71744 1.058333,-1.05834 0.08819,-0.0882 0.160806,-0.19539 0.264584,-0.26458 0.164086,-0.10939 0.3714,-0.14626 0.529166,-0.26458 0.199562,-0.14968 0.352777,-0.35278 0.529167,-0.52917 0.08819,-0.0882 0.153024,-0.2088 0.264583,-0.26458 0.07888,-0.0394 0.185701,0.0394 0.264584,0 0.223115,-0.11156 0.292515,-0.45029 0.529166,-0.52917 0.167339,-0.0558 0.358045,0.0428 0.529167,0 0.47888,0.15947 0.492077,-0.42861 0.79375,-0.52917 0.167338,-0.0558 0.361828,0.0558 0.529167,0 0.118324,-0.0394 0.153024,-0.2088 0.264583,-0.26458 0.07888,-0.0394 0.1857,0.0394 0.264583,0 0.111559,-0.0558 0.153025,-0.2088 0.264584,-0.26458 0.117734,-0.0589 0.937315,0.0403 1.058333,0 0.118324,-0.0394 0.139859,-0.26459 0.264583,-0.26459 0.08819,0 -0.07888,0.22514 0,0.26459 0.157766,0.0789 0.352777,0 0.529167,0 0.08819,0 0.202221,-0.0624 0.264583,0 0.06236,0.0624 -0.06236,0.20222 0,0.26458 0.06236,0.0624 0.202221,-0.0624 0.264583,0 0.06236,0.0624 -0.03944,0.1857 0,0.26458 0.15875,0.3175 0.635,0.47625 0.79375,0.79375 0.07888,0.15777 -0.09784,0.38241 0,0.52917 0.138372,0.20755 0.379495,0.3296 0.529167,0.52917 0.118324,0.15776 0.17639,0.35277 0.264583,0.52916 0.08819,0.17639 0.202221,0.34208 0.264584,0.52917 0.08367,0.251 -0.08367,0.54274 0,0.79375 0.03944,0.11832 0.208804,0.15302 0.264583,0.26458 0.03944,0.0789 -0.02789,0.18092 0,0.26459 0.06236,0.18709 0.17639,0.35277 0.264583,0.52916 0.08819,0.17639 0.141388,0.37517 0.264584,0.52917 0.233746,0.29218 0.554207,0.5063 0.79375,0.79375 0.407143,0.48857 0.676746,1.07872 1.058333,1.5875 0.07483,0.0998 0.208804,0.15302 0.264583,0.26458 0.07888,0.15777 -0.07888,0.3714 0,0.52917 0.243552,0.4871 0.550199,0.0421 0.79375,0.52917 0.03944,0.0789 -0.03944,0.1857 0,0.26458 0.111559,0.22311 0.417605,0.30605 0.529165,0.52917 0.16641,0.33282 -0.379993,0.52916 0.26459,0.52916"
       id="path38"
       inkscape:connector-curvature="0" />
  </g>
</svg>
